<?xml version='1.0' encoding='iso-8859-1'?>
<svg version="1.1" xmlns="http://www.w3.org/2000/svg" viewBox="0 0 441.592 441.592" xmlns:xlink="http://www.w3.org/1999/xlink" enable-background="new 0 0 441.592 441.592">
  <path d="m214.571,108.102c-2.543-5.212-0.38-11.498 4.832-14.041 5.214-2.544 11.497-0.38 14.041,4.832l23.075,47.288c1.319,2.703 1.415,5.843 0.265,8.623l-6.759,16.317c-1.675,4.043-5.585,6.483-9.705,6.484-1.34,0-2.7-0.258-4.015-0.802-5.357-2.22-7.901-8.361-5.683-13.72l4.948-11.946-20.999-43.035zm121.873,150.451v9.955c0,2.771-1.095,5.429-3.046,7.396l-72.674,73.246v53.186c0,4.012-2.286,7.673-5.891,9.435l-58.857,28.757c-1.458,0.712-3.036,1.065-4.608,1.065-1.937,0-3.867-0.535-5.563-1.594-3.071-1.918-4.938-5.284-4.938-8.906v-81.942l-72.674-73.246c-1.951-1.967-3.046-4.625-3.046-7.396v-9.955c0-5.799 4.701-10.5 10.5-10.5h210.297c5.799-0.001 10.5,4.7 10.5,10.499zm-96.719,96.771h-37.857v58.951l37.857-18.496v-40.455zm70.887-86.271h-179.633l64.761,65.271h50.111l64.761-65.271zm-167.466-115.289c-1.151-2.779-1.056-5.92 0.264-8.623l67.95-139.245c1.761-3.608 5.423-5.896 9.437-5.896s7.676,2.288 9.437,5.896l67.947,139.245c1.319,2.703 1.415,5.844 0.264,8.623l-19.903,48.046c-1.065,2.572-3.109,4.616-5.682,5.682l-48.044,19.901c-1.287,0.533-2.652,0.8-4.019,0.8s-2.731-0.267-4.019-0.799l-48.047-19.901c-2.572-1.066-4.616-3.11-5.682-5.683l-19.903-48.046zm21.212-3.666l16.428,39.657 40.011,16.572 40.008-16.572 16.428-39.657-56.436-115.656-56.439,115.656z"/>
</svg>
